<svg width="100" height="100" viewBox="0 0 100 100" xmlns="http://www.w3.org/2000/svg">
    <defs>
        <linearGradient id="grad1" x1="0%" y1="0%" x2="100%" y2="100%">
            <stop offset="0%" style="stop-color:#4361ee;stop-opacity:1" />
            <stop offset="100%" style="stop-color:#4cc9f0;stop-opacity:1" />
        </linearGradient>
    </defs>
    <path fill="url(#grad1)" d="M50,10 C27.9,10 10,27.9 10,50 C10,72.1 27.9,90 50,90 C62.1,90 73.1,84.2 80.3,75.5 C74.5,66.6 74.5,55.4 80.3,46.5 C73.1,37.8 62.1,32 50,32 C40.7,32 32.5,39.2 30.3,48 L40,48 C42.2,44.4 45.8,42 50,42 C55.5,42 60,46.5 60,52 C60,57.5 55.5,62 50,62 C45.8,62 42.2,59.6 40,56 L30.3,56 C32.5,64.8 40.7,72 50,72 C55,72 59.4,69.8 62.7,66.3 C68.5,72.9 73.8,80.5 75.5,90.3 C50,90 27.9,90 50,90 C27.9,90 10,72.1 10,50 C10,27.9 27.9,10 50,10 Z"/>
    <path fill="url(#grad1)" d="M85,20 C93.3,20 100,26.7 100,35 C100,43.3 93.3,50 85,50 C76.7,50 70,43.3 70,35 C70,26.7 76.7,20 85,20 Z"/>
</svg>
